:SAMPLES-PER-SECOND 30
:FRAME-RANGE 1-4244
:FULLY-SPECIFIED
:DEGREES
2786
root  45.0397 13.3133 68.232 -146.955 13.1768 146.597
RightUpLeg  -70.5188 11.9443 3.5362
RightLeg  124.99 -14.0947 18.5025
RightFoot  16.7969 -21.186 74.0377
RightToes  -1.33073e-015 0 -3.6325e-017
Spine  37.9628 -4.8744 -3.04849
Spine1  -2.24828 -6.9916 4.03931
HEad  -2.83631 20.4411 -4.93666
LeftShoulder1  0.536796 -10.092 4.80115
LeftArm  17.4387 -56.2701 -50.0685
LeftForeArm  27.0579 -26.9249 -4.33762
LeftHand  -0.299523 4.2751 31.0463
RightShoulder  0.120085 -2.83624 16.814
RightArm  -21.3573 7.30651 16.7181
RightForeArm  13.662 51.1299 12.9111
RightHand  -0.926359 -3.47954 -53.4486
LeftUpLeg  -48.2713 5.35617 39.492
LeftLeg  61.3926 9.15376 18.1433
LeftFoot  -5.65441 0.348685 -6.33435
LeftToes  2.72522e-012 8.43823e-011 6.24977e-012
2787
root  46.7778 12.2489 69.124 -150.184 7.1013 141.926
RightUpLeg  -69.413 8.54529 9.8406
RightLeg  124.381 -11.989 16.3523
RightFoot  20.1669 -23.4045 73.1692
RightToes  -1.33073e-015 0 -3.6325e-017
Spine  38.8345 -4.14096 -9.20242
Spine1  -0.0660275 -9.27107 7.55823
HEad  -2.98723 22.4771 -0.809708
LeftShoulder1  0.44106 -9.25123 5.36643
LeftArm  18.8196 -58.2662 -49.1815
LeftForeArm  25.8078 -23.9497 -3.76847
LeftHand  -0.204407 4.60451 30.1974
RightShoulder  0.0547672 -3.12026 17.4542
RightArm  -19.5014 3.56788 21.6223
RightForeArm  16.0439 55.7431 15.2803
RightHand  -1.42151 -2.58418 -55.1382
LeftUpLeg  -53.9451 5.46095 37.5652
LeftLeg  63.5069 6.89214 15.3511
LeftFoot  -11.9795 0.0137223 -10.3694
LeftToes  2.72522e-012 8.43823e-011 6.24977e-012
2788
root  48.4738 11.3169 69.7906 -151.63 1.20192 138.618
RightUpLeg  -68.5844 5.84651 16.9744
RightLeg  123.058 -7.6046 11.3278
RightFoot  18.002 -22.8306 75.8656
RightToes  -1.33073e-015 0 -3.6325e-017
Spine  39.0607 -3.16678 -14.4056
Spine1  0.413811 -11.2074 11.3048
HEad  -5.90793 21.7145 2.03371
LeftShoulder1  0.523804 -10.2556 4.96634
LeftArm  16.2601 -60.1699 -47.7611
LeftForeArm  29.8373 -18.0337 -6.35383
LeftHand  -0.140545 4.84361 30.0631
RightShoulder  -0.170991 -4.01472 19.172
RightArm  -15.6111 2.29149 24.9611
RightForeArm  17.5616 57.4863 16.291
RightHand  -1.54891 -2.40734 -56.2733
LeftUpLeg  -59.5757 8.94107 33.3909
LeftLeg  65.3427 4.03378 10.2392
LeftFoot  -14.2693 -0.204272 -11.2992
LeftToes  2.72522e-012 8.43823e-011 6.24977e-012
2789
root  50.0081 10.4322 70.304 -153.319 -4.58517 136.377
RightUpLeg  -67.0822 3.24469 23.6264
RightLeg  120.372 -4.25705 7.37613
RightFoot  13.6735 -20.7713 79.6892
RightToes  -1.33073e-015 0 -3.6325e-017
Spine  39.3802 -2.81274 -17.3146
Spine1  -0.210521 -12.317 12.37
HEad  -10.6823 19.9258 3.30821
LeftShoulder1  0.747644 -11.867 3.74958
LeftArm  7.25887 -64.0842 -47.4793
LeftForeArm  43.3003 -6.71854 -11.9324
LeftHand  -0.035561 5.24144 29.7967
RightShoulder  -0.3912 -4.83139 19.9761
RightArm  -15.6394 -1.45933 32.4351
RightForeArm  22.3356 57.633 15.9191
RightHand  -1.69372 -2.16453 -56.7506
LeftUpLeg  -63.9982 14.4609 26.8021
LeftLeg  67.1781 0.7254 2.66518
LeftFoot  -13.1109 -0.146663 -14.4961
LeftToes  2.72522e-012 8.43823e-011 6.24977e-012
2790
root  51.404 9.5539 70.6676 -154.929 -10.2369 135.539
RightUpLeg  -66.6238 0.643262 29.8147
RightLeg  116.854 -1.43471 3.36549
RightFoot  14.6839 -21.5837 79.6033
RightToes  -1.33073e-015 0 -3.6325e-017
Spine  39.4961 -3.23419 -17.949
Spine1  -1.53222 -12.742 11.3251
HEad  -16.3493 17.9476 2.08
LeftShoulder1  0.964279 -14.5221 3.20497
LeftArm  9.94725 -68.197 -49.8223
LeftForeArm  48.0928 5.37874 -14.3626
LeftHand  0.247423 6.35723 28.9265
RightShoulder  -0.403405 -4.81127 21.1862
RightArm  -14.0416 -5.67626 36.8117
RightForeArm  24.5264 56.7078 15.0893
RightHand  -2.04578 -1.59921 -57.9745
LeftUpLeg  -68.2511 19.9242 20.0193
LeftLeg  68.1937 -5.20588 -13.3881
LeftFoot  -5.94008 0.108098 -1.53485
LeftToes  2.72522e-012 8.43823e-011 6.24977e-012
2791
root  52.798 8.83633 70.8604 -156.945 -16.4714 134.038
RightUpLeg  -66.2895 -3.25143 33.8088
RightLeg  113.044 0.274513 0.262297
RightFoot  16.8481 -23.136 78.9617
RightToes  -1.33073e-015 0 -3.6325e-017
Spine  39.7618 -3.19481 -19.4634
Spine1  -1.0156 -13.6786 11.8175
HEad  -22.9589 13.9807 -1.13674
LeftShoulder1  1.00001 -16.5623 3.63932
LeftArm  25.355 -72.4208 -58.7439
LeftForeArm  47.4494 4.40377 -16.3798
LeftHand  0.583628 7.90539 26.5987
RightShoulder  -0.339905 -4.56164 21.5937
RightArm  -14.7264 -10.2643 42.2538
RightForeArm  26.7331 56.993 15.0598
RightHand  -2.27896 -1.25489 -58.9566
LeftUpLeg  -68.1955 20.5958 18.9754
LeftLeg  64.5494 -7.96732 -17.1059
LeftFoot  -7.36135 0.23248 -5.41893
LeftToes  2.72522e-012 8.43823e-011 6.24977e-012
2792
root  54.0597 8.19027 70.9918 -158.918 -22.2224 131.343
RightUpLeg  -66.0879 -8.03351 35.684
RightLeg  109.708 0.725105 -0.872643
RightFoot  17.4939 -23.3292 78.1199
RightToes  -1.33073e-015 0 -3.6325e-017
Spine  40.1506 -3.29383 -20.6014
Spine1  0.45501 -14.2713 10.4455
HEad  -28.5694 7.64381 -3.925
LeftShoulder1  1.0944 -17.4319 3.36358
LeftArm  23.9819 -73.4349 -66.2052
LeftForeArm  51.5112 5.80557 -15.3217
LeftHand  0.580728 8.68403 20.7093
RightShoulder  -0.20862 -4.08655 21.693
RightArm  -16.6835 -14.6713 47.4896
RightForeArm  28.5143 56.263 14.4301
RightHand  -2.92611 -0.247524 -60.4391
LeftUpLeg  -65.618 19.9894 16.8561
LeftLeg  59.0288 -12.1795 -20.3774
LeftFoot  -8.8626 0.248743 -9.03371
LeftToes  2.72522e-012 8.43823e-011 6.24977e-012
2793
root  55.1856 7.7577 71.1672 -159.316 -27.6388 127.001
RightUpLeg  -67.2445 -13.4573 35.171
RightLeg  107.509 0.937095 -1.61143
RightFoot  17.1821 -23.224 78.4934
RightToes  -1.33073e-015 0 -3.6325e-017
Spine  39.7147 -4.19128 -19.7991
Spine1  2.70013 -14.257 6.6166
HEad  -30.7982 -0.36088 -5.82171
LeftShoulder1  1.56538 -16.9873 0.58659
LeftArm  20.1215 -72.0273 -73.3052
LeftForeArm  51.5211 6.3807 -12.793
LeftHand  0.278929 8.1655 12.6624
RightShoulder  0.00405267 -3.32515 20.7936
RightArm  -20.3498 -22.1828 53.3777
RightForeArm  30.0881 59.1185 16.1826
RightHand  -3.68271 0.822429 -62.4388
LeftUpLeg  -63.0461 18.6564 12.8706
LeftLeg  52.5206 -12.0734 -15.923
LeftFoot  -11.2772 0.0727453 -9.49414
LeftToes  2.72522e-012 8.43823e-011 6.24977e-012
2794
root  56.1873 7.63127 71.4811 -158.666 -32.4921 122.184
RightUpLeg  -69.4569 -19.185 33.5552
RightLeg  105.849 1.60365 -3.86042
RightFoot  19.7236 -24.721 77.1105
RightToes  -1.33073e-015 0 -3.6325e-017
Spine  38.3316 -5.25053 -16.7721
Spine1  5.8583 -13.417 2.28169
HEad  -30.4427 -8.77981 -6.27794
LeftShoulder1  2.06885 -16.813 -2.33046
LeftArm  27.9853 -70.9313 -86.2794
LeftForeArm  57.4937 -0.157164 -12.1005
LeftHand  0.0765296 6.45121 10.7337
RightShoulder  0.284774 -2.21259 18.7992
RightArm  -24.7799 -28.766 58.8524
RightForeArm  29.5471 60.2974 17.1381
RightHand  -5.06352 2.66939 -65.373
LeftUpLeg  -60.2009 16.4385 8.26709
LeftLeg  45.4721 -7.90154 -8.11989
LeftFoot  -12.1446 0.0193051 -7.60391
LeftToes  2.72522e-012 8.43823e-011 6.24977e-012
2795
root  57.0525 7.38963 71.7916 -156.82 -35.0779 116.013
RightUpLeg  -70.8901 -23.0293 30.359
RightLeg  104.559 1.69773 -4.51544
RightFoot  20.4018 -24.8914 76.2435
RightToes  -1.33073e-015 0 -3.6325e-017
Spine  37.7167 -4.84745 -15.7957
Spine1  6.40416 -11.722 -0.81488
HEad  -26.4236 -16.0337 -6.57087
LeftShoulder1  2.05666 -15.7989 -2.88209
LeftArm  41.2811 -66.8296 -96.6605
LeftForeArm  56.8337 -7.84624 -11.6846
LeftHand  0.0965576 6.42835 12.8798
RightShoulder  0.447359 -1.46671 17.3144
RightArm  -24.3902 -36.8296 60.4909
RightForeArm  28.7935 64.0538 20.7046
RightHand  -6.13942 4.04948 -67.1698
LeftUpLeg  -56.7504 15.9772 2.39443
LeftLeg  39.5478 -3.90489 -3.07399
LeftFoot  -13.7521 -0.067089 -7.0936
LeftToes  2.72522e-012 8.43823e-011 6.24977e-012
2796
root  57.1713 6.89067 72.2802 -152.455 -38.8094 106.626
RightUpLeg  -74.1529 -26.8535 26.2571
RightLeg  102.659 -0.694536 3.94777
RightFoot  9.78928 -18.0101 81.2318
RightToes  -1.33073e-015 0 -3.6325e-017
Spine  37.0776 -5.43916 -18.4562
Spine1  6.58758 -10.8037 -2.07064
HEad  -20.5645 -20.5631 -8.30861
LeftShoulder1  1.98867 -14.1855 -3.57432
LeftArm  57.3318 -60.5538 -97.4672
LeftForeArm  36.0648 -21.2873 -4.26068
LeftHand  0.0348252 5.87475 12.5165
RightShoulder  0.540821 -1.03621 16.8911
RightArm  -26.3 -43.6889 62.3202
RightForeArm  32.9199 69.0954 27.0732
RightHand  -6.81259 4.85029 -68.3651
LeftUpLeg  -55.9934 13.3899 -4.96002
LeftLeg  39.4849 -2.51362 -1.81982
LeftFoot  -18.9846 -0.660711 -11.5581
LeftToes  2.72522e-012 8.43823e-011 6.24977e-012
2797
root  56.3982 6.31589 72.6695 -146.387 -43.5047 94.6921
RightUpLeg  -80.3459 -31.8098 22.2485
RightLeg  99.8977 -0.634771 4.52617
RightFoot  7.24818 -16.4692 83.4691
RightToes  -1.33073e-015 0 -3.6325e-017
Spine  36.1524 -6.9168 -23.2854
Spine1  6.88186 -10.6115 -1.21588
HEad  -15.8309 -22.3833 -9.75315
LeftShoulder1  2.17392 -13.0043 -5.79147
LeftArm  47.4372 -56.9979 -93.111
LeftForeArm  40.9606 -30.0342 -4.30063
LeftHand  -0.0276685 5.27796 12.0862
RightShoulder  0.611172 -0.76029 17.1487
RightArm  -30.2975 -47.1825 64.3417
RightForeArm  40.5916 72.7114 33.7261
RightHand  -7.07782 5.22108 -68.5034
LeftUpLeg  -56.0349 9.18729 -12.9699
LeftLeg  43.8762 -0.451273 0.00652651
LeftFoot  -25.2896 -1.20386 -11.0529
LeftToes  2.72522e-012 8.43823e-011 6.24977e-012
2798
root  55.4733 5.87407 72.8184 -140.069 -47.7048 83.5934
RightUpLeg  -84.7292 -35.9181 17.9786
RightLeg  96.5408 0.374294 -0.499726
RightFoot  9.98483 -19.8002 86.2043
RightToes  -1.33073e-015 0 -3.6325e-017
Spine  35.9439 -9.30767 -27.4481
Spine1  5.75285 -10.8703 -1.87726
HEad  -14.1898 -21.699 -8.60094
LeftShoulder1  1.9976 -11.8861 -5.59404
LeftArm  36.3887 -53.7668 -86.7713
LeftForeArm  47.5719 -36.4906 -5.49842
LeftHand  0.0476996 5.99897 12.496
RightShoulder  0.629295 -0.687046 17.1847
RightArm  -31.5241 -48.9753 65.8033
RightForeArm  48.1872 75.0939 40.1819
RightHand  -7.07261 5.22568 -68.4409
LeftUpLeg  -55.5288 6.54468 -19.2493
LeftLeg  49.0121 1.47117 2.38242
LeftFoot  -30.6288 -1.37083 -9.13713
LeftToes  2.72522e-012 8.43823e-011 6.24977e-012
2799
root  54.4022 5.6273 72.7024 -131.358 -51.3008 71.2169
RightUpLeg  -87.6869 -40.1305 12.7988
RightLeg  92.7684 0.884725 -7.2647
RightFoot  14.3212 -24.5153 87.8884
RightToes  -1.33073e-015 0 -3.6325e-017
Spine  35.1471 -11.8197 -32.1023
Spine1  4.12325 -11.4781 -1.96715
HEad  -12.7202 -21.3029 -7.71858
LeftShoulder1  2.09749 -11.4625 -6.78154
LeftArm  29.782 -51.5097 -79.848
LeftForeArm  48.1283 -39.3641 -6.22672
LeftHand  0.0417993 5.92187 12.8683
RightShoulder  0.614728 -0.748783 17.185
RightArm  -33.4438 -49.7041 67.5812
RightForeArm  54.0409 76.5188 45.6229
RightHand  -6.49706 4.43876 -68.0265
LeftUpLeg  -55.0313 5.43819 -25.4058
LeftLeg  54.767 0.345671 1.23846
LeftFoot  -38.6704 -1.8712 -8.6491
LeftToes  2.72522e-012 8.43823e-011 6.24977e-012
2800
root  53.1759 5.50957 72.344 -121.552 -53.3087 57.8806
RightUpLeg  -87.907 -44.4452 5.85866
RightLeg  88.9317 0.491091 -14.5706
RightFoot  19.6028 -29.6373 88.0382
RightToes  -1.33073e-015 0 -3.6325e-017
Spine  34.3885 -13.6223 -37.629
Spine1  1.85062 -12.247 -2.11974
HEad  -11.3654 -21.8984 -6.68037
LeftShoulder1  2.02066 -11.0504 -6.63977
LeftArm  24.9035 -49.2238 -74.4582
LeftForeArm  48.0036 -39.7922 -6.35158
LeftHand  0.0460078 5.99901 12.2343
RightShoulder  0.589303 -0.871461 17.345
RightArm  -33.9366 -49.9661 67.9936
RightForeArm  59.0907 77.4049 49.7519
RightHand  -6.28145 4.12544 -67.9573
LeftUpLeg  -53.7461 5.94986 -30.9212
LeftLeg  60.4231 -1.11736 -1.21244
LeftFoot  -43.7883 -2.02155 -7.8577
LeftToes  2.72522e-012 8.43823e-011 6.24977e-012
